<svg width="1600" height="953" viewBox="0 0 1600 953" fill="none" xmlns="http://www.w3.org/2000/svg">
<rect y="80" width="1600" height="833" fill="#F7F7F9"/>
<path d="M1834 875.049C1796.15 754.8 1338.92 537.184 777.821 875.049C370.713 1120.19 46.8337 698.701 -234 573" stroke="white" stroke-width="5"/>
<path d="M1834 495.049C1796.15 374.8 1338.92 157.184 777.821 495.049C370.713 740.191 46.8337 318.701 -234 193" stroke="white" stroke-width="5"/>
<path d="M1834 305.049C1796.15 184.8 1338.92 -32.8157 777.821 305.049C370.713 550.191 46.8337 128.701 -234 3.00008" stroke="white" stroke-width="5"/>
<path d="M1834 685.049C1796.15 564.8 1338.92 347.184 777.821 685.049C370.713 930.191 46.8337 508.701 -234 383" stroke="white" stroke-width="5"/>
<path d="M1449.13 534.8C1449.13 534.8 1454.43 552.439 1466.43 558.464C1478.43 564.489 1483.21 571.183 1479.02 555.175C1474.82 539.166 1477.24 536.692 1470.08 525.748C1462.91 514.775 1453.24 496.555 1453.24 496.555" fill="#F7F7F9"/>
<path d="M1449.13 534.8C1449.13 534.8 1454.43 552.439 1466.43 558.464C1478.43 564.489 1483.21 571.183 1479.02 555.175C1474.82 539.166 1477.24 536.692 1470.08 525.748C1462.91 514.775 1453.24 496.555 1453.24 496.555" stroke="white" stroke-width="5" stroke-miterlimit="10" stroke-linecap="round"/>
<path d="M1412.9 585.296C1412.9 585.296 1444.12 566.726 1453.06 521.611C1453.06 521.611 1461.28 436.33 1416.02 406.03C1370.75 375.73 1372.97 405.099 1373.49 414.122C1374.01 423.145 1385.67 462.875 1384.94 474.081C1384.21 485.286 1357.15 503.361 1355.87 528.771C1354.59 554.181 1360.91 554.967 1365.54 547.021C1370.17 539.075 1370.99 532.759 1378.68 529.528C1386.36 526.297 1390.44 516.052 1390.44 516.052C1390.44 516.052 1426.06 542.218 1368.74 594.639C1368.74 594.639 1322.11 571.354 1292.99 585.907C1263.83 600.46 1296.86 593.678 1306.59 596.589C1316.32 599.5 1325.05 618.913 1335.74 622.785C1346.43 626.656 1343.52 627.645 1340.61 641.238C1337.69 654.831 1346.43 661.612 1351.3 669.384C1356.16 677.155 1351.3 693.658 1357.12 683.937C1362.95 674.215 1390.15 646.07 1376.55 611.142C1376.52 611.113 1409.46 587.653 1412.9 585.296Z" fill="#F7F7F9" stroke="white" stroke-width="5" stroke-miterlimit="10" stroke-linecap="round"/>
<path d="M1390.44 516.018C1390.44 516.018 1386.02 508.48 1386.34 499.224L1390.44 516.018Z" fill="#F7F7F9"/>
<path d="M1390.44 516.018C1390.44 516.018 1386.02 508.48 1386.34 499.224" stroke="white" stroke-width="5" stroke-miterlimit="10" stroke-linecap="round"/>
<path d="M252.871 357.218C261.997 349.828 265.577 339.332 265.577 339.332L252.871 357.218Z" fill="#F7F7F9"/>
<path d="M252.871 357.218C261.997 349.828 265.577 339.332 265.577 339.332" stroke="white" stroke-width="5" stroke-miterlimit="10" stroke-linecap="round"/>
<path d="M1178.67 218.708C1178.67 218.708 1201.58 220.827 1214.16 209.764C1226.75 198.735 1236.78 196.28 1216.25 193.657C1195.73 191.034 1194.01 187.067 1177.96 190.227C1161.91 193.388 1136.23 196.045 1136.23 196.045" fill="#F7F7F9"/>
<path d="M1178.67 218.708C1178.67 218.708 1201.58 220.827 1214.16 209.764C1226.75 198.735 1236.78 196.28 1216.25 193.657C1195.73 191.034 1194.01 187.067 1177.96 190.227C1161.91 193.388 1136.23 196.045 1136.23 196.045" stroke="white" stroke-width="5" stroke-miterlimit="10" stroke-linecap="round"/>
<path d="M1165.24 207.947C1165.24 207.947 1070.28 158.517 1013.96 196.716C957.628 234.915 992.69 246.112 1003.42 249.71C1014.12 253.308 1065.64 258.453 1078.26 264.539C1090.88 270.625 1099.19 310.404 1127.99 323.787C1156.83 337.17 1160.7 330.21 1153.67 321.131C1146.63 312.052 1139.7 308.151 1139.53 297.727C1139.4 287.27 1129.44 277.821 1129.44 277.821C1129.44 277.821 1164.4 266.691 1211.88 297.357C1211.88 297.357 1209.73 337.271 1252.39 353.176C1295.06 369.081 1258.45 352.47 1252.36 336.061C1246.27 319.651 1254.65 306.571 1250.21 300.787C1245.73 295.004 1273.12 279.166 1277.66 261.143C1282.21 243.119 1292.54 249.643 1294.12 243.153C1295.7 236.663 1280.89 224.323 1257.54 243.657C1239.98 258.184 1227.76 273.82 1222.78 280.713C1221.81 282.058 1219.75 281.654 1219.35 280.04C1216.25 268.103 1204.41 233.603 1165.24 207.947Z" fill="#F7F7F9" stroke="white" stroke-width="5" stroke-miterlimit="10" stroke-linecap="round"/>
<path d="M1129.44 277.815C1129.44 277.815 1118.61 279.395 1108.04 274.688L1129.44 277.815Z" fill="#F7F7F9"/>
<path d="M1129.44 277.815C1129.44 277.815 1118.61 279.395 1108.04 274.688" stroke="white" stroke-width="5" stroke-miterlimit="10" stroke-linecap="round"/>
<path d="M727.726 169.39C727.726 169.39 748.736 163.535 756.156 149.538C763.575 135.54 771.619 129.997 752.55 134.57C733.481 139.144 730.638 136.233 717.463 144.41C704.288 152.587 682.481 163.604 682.481 163.604" fill="#F7F7F9"/>
<path d="M727.726 169.39C727.726 169.39 748.736 163.535 756.156 149.538C763.575 135.54 771.619 129.997 752.55 134.57C733.481 139.144 730.638 136.233 717.463 144.41C704.288 152.587 682.481 163.604 682.481 163.604" stroke="white" stroke-width="5" stroke-miterlimit="10" stroke-linecap="round"/>
<path d="M712.198 164.398C712.198 164.398 611.445 152.583 574.417 205.35C537.388 258.117 572.232 256.246 582.946 255.83C593.659 255.415 640.984 242.63 654.228 243.773C667.473 244.917 688.206 277.346 718.231 279.494C748.255 281.642 749.365 274.193 740.073 268.511C730.781 262.829 723.327 261.72 719.687 252.539C716.046 243.358 704.016 238.299 704.016 238.299C704.016 238.299 731.232 216.68 783.585 227.87C783.585 227.87 795.13 263.972 838.26 263.695C881.391 263.418 843.392 261.027 832.471 248.52C821.549 236.012 824.565 221.634 818.671 217.996C812.777 214.358 831.673 191.145 829.628 173.649C827.582 156.152 838.954 158.473 838.156 152.168C837.359 145.897 820.093 139.937 805.947 164.918C795.303 183.696 789.756 201.643 787.641 209.404C787.225 210.894 785.284 211.24 784.382 209.993C777.656 200.5 755.571 173.926 712.198 164.398Z" fill="#F7F7F9" stroke="white" stroke-width="5" stroke-miterlimit="10" stroke-linecap="round"/>
<path d="M704.044 238.285C704.044 238.285 694.995 243.343 684.039 242.72L704.044 238.285Z" fill="#F7F7F9"/>
<path d="M704.044 238.285C704.044 238.285 694.995 243.343 684.039 242.72" stroke="white" stroke-width="5" stroke-miterlimit="10" stroke-linecap="round"/>
<path d="M476.458 667.404C476.458 667.404 437.269 609.117 392.075 597.607C392.075 597.607 369.846 582.273 374.552 603.643C379.257 625.014 386.878 618.838 387.229 632.348C387.58 645.858 395.832 650.069 395.832 650.069" fill="#F7F7F9"/>
<path d="M476.458 667.404C476.458 667.404 437.269 609.117 392.075 597.607C392.075 597.607 369.846 582.273 374.552 603.643C379.257 625.014 386.878 618.838 387.229 632.348C387.58 645.858 395.832 650.069 395.832 650.069" stroke="white" stroke-width="5" stroke-miterlimit="10" stroke-linecap="round"/>
<path d="M476.457 667.415C476.457 667.415 623.17 740.019 605.155 765.53C587.141 791.041 516.629 788.129 474.561 788.023C432.492 787.918 443.167 793.884 404.856 815.535C366.51 837.186 350.708 821.15 346.037 813.535C341.753 806.587 370.478 793.498 389.054 785.778C395.129 783.251 392.636 773.004 405.207 764.898C407.279 763.565 405.102 760.126 402.644 760.196C388.176 760.617 349.479 768.337 305.725 728.263C254.913 681.767 264.604 667.836 235.88 687.382C207.155 706.892 201.361 737.352 176.464 729.983C176.464 729.983 182.504 670.643 224.397 650.992C224.397 650.992 197.007 594.495 213.933 560.913C230.858 527.331 237.46 527.26 239.462 578.915C241.463 630.569 272.611 653.589 314.644 647.132C356.572 640.675 434.283 654.115 476.457 667.415Z" fill="#F7F7F9" stroke="white" stroke-width="5" stroke-miterlimit="10" stroke-linecap="round"/>
<path d="M405.847 760.645C405.847 760.645 431.025 757.697 451.392 765.944L405.847 760.645Z" fill="#F7F7F9"/>
<path d="M405.847 760.645C405.847 760.645 431.025 757.697 451.392 765.944" stroke="white" stroke-width="5" stroke-miterlimit="10" stroke-linecap="round"/>
<path d="M1038.34 678.932C1038.34 678.932 957.96 604.467 922.45 611.2C922.45 611.2 919.755 639.115 933.412 649.779C968.121 676.894 944.484 694.218 944.484 694.218" fill="#F7F7F9"/>
<path d="M1038.34 678.932C1038.34 678.932 957.96 604.467 922.45 611.2C922.45 611.2 919.755 639.115 933.412 649.779C968.121 676.894 944.484 694.218 944.484 694.218" stroke="white" stroke-width="5" stroke-miterlimit="10" stroke-linecap="round"/>
<path d="M961.742 690.272C1014.77 677.024 1105.02 676.478 1180.37 692.128C1255.73 707.778 1221.71 739.624 1204.7 755.565C1187.69 771.506 1078.32 827.919 1032.65 831.704C987.018 835.489 858.454 812.851 825.748 783.444C793.079 754.036 782.553 813.688 759.317 837.964C739.868 858.309 708.547 857.399 708.547 857.399C708.547 857.399 718.927 811.905 752.142 784.645C778.365 763.099 756.039 735.657 730.945 717.022C705.815 698.388 721.221 651.438 721.221 651.438C721.221 651.438 736.882 656.57 758.516 681.646C780.113 706.759 806.081 760.988 844.942 741.808C883.839 722.664 930.785 698.024 961.742 690.272Z" fill="#F7F7F9" stroke="white" stroke-width="5" stroke-miterlimit="10" stroke-linecap="round"/>
<path d="M1085.76 767.177C1085.76 767.177 1049.74 751.236 1003.52 781.662C957.303 812.089 930.279 840.659 911.377 845.9C892.475 851.141 931.518 862.351 961.382 865.881C1003.52 870.831 1037.1 860.276 1065.47 801.498" fill="#F7F7F9"/>
<path d="M1085.76 767.177C1085.76 767.177 1049.74 751.236 1003.52 781.662C957.303 812.089 930.279 840.659 911.377 845.9C892.475 851.141 931.518 862.351 961.382 865.881C1003.52 870.831 1037.1 860.276 1065.47 801.498" stroke="white" stroke-width="5" stroke-miterlimit="10" stroke-linecap="round"/>
<path d="M311.403 271.625C311.403 271.625 273.325 259.027 229.187 284.223C229.187 284.223 152.074 339.065 159.504 398.768C166.935 458.438 189.843 435.364 196.999 428.381C204.156 421.397 228.879 382.953 238.775 375.455C248.637 367.958 283.324 377.441 305.445 360.153C327.565 342.865 323.661 337.011 313.663 338.894C303.664 340.777 297.843 344.679 289.556 340.606C281.27 336.532 269.798 340.537 269.798 340.537C269.798 340.537 265.895 291.891 351.089 301.751C351.089 301.751 365.368 357.483 398.583 371.279C431.798 385.041 402.247 362.412 397.659 352.211C393.07 342.009 402.932 320.648 398.446 308.94C393.96 297.232 396.871 298.943 410.328 291.549C423.785 284.155 423.135 271.933 426.114 262.279C429.093 252.625 446.385 244.717 434.058 246.874C421.731 249.031 378.551 246.737 359.239 283.333C359.273 283.299 315.854 272.823 311.403 271.625Z" fill="#F7F7F9" stroke="white" stroke-width="5" stroke-miterlimit="10" stroke-linecap="round"/>
</svg>
