<svg width="1328" height="740" viewBox="0 0 1328 740" fill="none" xmlns="http://www.w3.org/2000/svg">
<path d="M1293.13 404.8C1293.13 404.8 1298.43 422.439 1310.43 428.464C1322.43 434.489 1327.21 441.183 1323.02 425.175C1318.82 409.166 1321.24 406.692 1314.08 395.748C1306.91 384.775 1297.24 366.555 1297.24 366.555" fill="#F7F7F9"/>
<path d="M1293.13 404.8C1293.13 404.8 1298.43 422.439 1310.43 428.464C1322.43 434.489 1327.21 441.183 1323.02 425.175C1318.82 409.166 1321.24 406.692 1314.08 395.748C1306.91 384.775 1297.24 366.555 1297.24 366.555" stroke="white" stroke-width="5" stroke-miterlimit="10" stroke-linecap="round"/>
<path d="M1234.44 386.018C1234.44 386.018 1230.02 378.48 1230.34 369.224L1234.44 386.018Z" fill="#F7F7F9"/>
<path d="M1234.44 386.018C1234.44 386.018 1230.02 378.48 1230.34 369.224" stroke="white" stroke-width="5" stroke-miterlimit="10" stroke-linecap="round"/>
<path d="M96.8711 227.218C105.997 219.828 109.577 209.332 109.577 209.332L96.8711 227.218Z" fill="#F7F7F9"/>
<path d="M96.8711 227.218C105.997 219.828 109.577 209.332 109.577 209.332" stroke="white" stroke-width="5" stroke-miterlimit="10" stroke-linecap="round"/>
<path d="M1022.67 88.7081C1022.67 88.7081 1045.58 90.8265 1058.16 79.7638C1070.75 68.7346 1080.78 66.2799 1060.25 63.6571C1039.73 61.0344 1038.01 57.0666 1021.96 60.2274C1005.91 63.3882 980.234 66.0446 980.234 66.0446" fill="#F7F7F9"/>
<path d="M1022.67 88.7081C1022.67 88.7081 1045.58 90.8265 1058.16 79.7638C1070.75 68.7346 1080.78 66.2799 1060.25 63.6571C1039.73 61.0344 1038.01 57.0666 1021.96 60.2274C1005.91 63.3882 980.234 66.0446 980.234 66.0446" stroke="white" stroke-width="5" stroke-miterlimit="10" stroke-linecap="round"/>
<path d="M973.444 147.815C973.444 147.815 962.609 149.395 952.043 144.688L973.444 147.815Z" fill="#F7F7F9"/>
<path d="M973.444 147.815C973.444 147.815 962.609 149.395 952.043 144.688" stroke="white" stroke-width="5" stroke-miterlimit="10" stroke-linecap="round"/>
<path d="M571.726 39.3902C571.726 39.3902 592.736 33.5349 600.156 19.5376C607.575 5.5404 615.619 -0.00303602 596.55 4.57032C577.481 9.14367 574.638 6.23334 561.463 14.4099C548.288 22.5865 526.48 33.6042 526.48 33.6042" fill="#F7F7F9"/>
<path d="M571.726 39.3902C571.726 39.3902 592.736 33.5349 600.156 19.5376C607.575 5.5404 615.619 -0.00303603 596.55 4.57032C577.481 9.14367 574.638 6.23334 561.463 14.4099C548.288 22.5865 526.48 33.6042 526.48 33.6042" stroke="white" stroke-width="5" stroke-miterlimit="10" stroke-linecap="round"/>
<path d="M548.044 108.285C548.044 108.285 538.995 113.343 528.039 112.72L548.044 108.285Z" fill="#F7F7F9"/>
<path d="M548.044 108.285C548.044 108.285 538.995 113.343 528.039 112.72" stroke="white" stroke-width="5" stroke-miterlimit="10" stroke-linecap="round"/>
<path d="M320.458 537.404C320.458 537.404 281.269 479.117 236.075 467.607C236.075 467.607 213.846 452.273 218.552 473.643C223.257 495.014 230.878 488.838 231.229 502.348C231.58 515.858 239.832 520.069 239.832 520.069" fill="#F7F7F9"/>
<path d="M320.458 537.404C320.458 537.404 281.269 479.117 236.075 467.607C236.075 467.607 213.846 452.273 218.552 473.643C223.257 495.014 230.878 488.838 231.229 502.348C231.58 515.858 239.832 520.069 239.832 520.069" stroke="white" stroke-width="5" stroke-miterlimit="10" stroke-linecap="round"/>
<path d="M249.847 630.645C249.847 630.645 275.025 627.697 295.392 635.944L249.847 630.645Z" fill="#F7F7F9"/>
<path d="M249.847 630.645C249.847 630.645 275.025 627.697 295.392 635.944" stroke="white" stroke-width="5" stroke-miterlimit="10" stroke-linecap="round"/>
<path d="M882.34 548.932C882.34 548.932 801.96 474.467 766.45 481.2C766.45 481.2 763.755 509.115 777.412 519.779C812.121 546.894 788.484 564.218 788.484 564.218" fill="#F7F7F9"/>
<path d="M882.34 548.932C882.34 548.932 801.96 474.467 766.45 481.2C766.45 481.2 763.755 509.115 777.412 519.779C812.121 546.894 788.484 564.218 788.484 564.218" stroke="white" stroke-width="5" stroke-miterlimit="10" stroke-linecap="round"/>
<path d="M929.758 637.177C929.758 637.177 893.739 621.236 847.521 651.662C801.303 682.089 774.279 710.659 755.377 715.9C736.475 721.141 775.518 732.351 805.382 735.881C847.521 740.831 881.101 730.276 909.472 671.498" fill="#F7F7F9"/>
<path d="M929.758 637.177C929.758 637.177 893.739 621.236 847.521 651.662C801.303 682.089 774.279 710.659 755.377 715.9C736.475 721.141 775.518 732.351 805.382 735.881C847.521 740.831 881.101 730.276 909.472 671.498" stroke="white" stroke-width="5" stroke-miterlimit="10" stroke-linecap="round"/>
<path d="M1256.9 455.296C1256.9 455.296 1288.12 436.726 1297.06 391.611C1297.06 391.611 1305.28 306.33 1260.02 276.03C1214.75 245.73 1216.97 275.099 1217.49 284.122C1218.01 293.145 1229.67 332.875 1228.94 344.081C1228.21 355.286 1201.15 373.361 1199.87 398.771C1198.59 424.181 1204.91 424.967 1209.54 417.021C1214.17 409.075 1214.99 402.759 1222.68 399.528C1230.36 396.297 1234.44 386.052 1234.44 386.052C1234.44 386.052 1270.06 412.218 1212.74 464.639C1212.74 464.639 1166.11 441.354 1136.99 455.907C1107.83 470.46 1140.86 463.678 1150.59 466.589C1160.32 469.5 1169.05 488.913 1179.74 492.785C1190.43 496.656 1187.52 497.645 1184.61 511.238C1181.69 524.831 1190.43 531.612 1195.3 539.384C1200.16 547.155 1195.3 563.658 1201.12 553.937C1206.95 544.215 1234.15 516.07 1220.55 481.142C1220.52 481.113 1253.46 457.653 1256.9 455.296Z" fill="#F7F7F9" stroke="white" stroke-width="5" stroke-miterlimit="10" stroke-linecap="round"/>
<path d="M1009.24 77.9471C1009.24 77.9471 914.285 28.5175 857.957 66.7161C801.628 104.915 836.69 116.112 847.424 119.71C858.125 123.308 909.641 128.453 922.26 134.539C934.878 140.625 943.189 180.404 971.992 193.787C1000.83 207.17 1004.7 200.21 997.667 191.131C990.634 182.052 983.702 178.151 983.534 167.727C983.399 157.27 973.439 147.821 973.439 147.821C973.439 147.821 1008.4 136.691 1055.88 167.357C1055.88 167.357 1053.73 207.271 1096.39 223.176C1139.06 239.081 1102.45 222.47 1096.36 206.061C1090.27 189.651 1098.65 176.571 1094.21 170.787C1089.73 165.004 1117.12 149.166 1121.66 131.143C1126.21 113.119 1136.54 119.643 1138.12 113.153C1139.7 106.663 1124.89 94.3227 1101.54 113.657C1083.98 128.184 1071.76 143.82 1066.78 150.713C1065.81 152.058 1063.75 151.654 1063.35 150.04C1060.25 138.103 1048.41 103.603 1009.24 77.9471Z" fill="#F7F7F9" stroke="white" stroke-width="5" stroke-miterlimit="10" stroke-linecap="round"/>
<path d="M556.198 34.3979C556.198 34.3979 455.445 22.5834 418.417 75.3502C381.388 128.117 416.232 126.246 426.946 125.83C437.659 125.415 484.984 112.63 498.228 113.773C511.473 114.917 532.206 147.346 562.231 149.494C592.255 151.642 593.365 144.193 584.073 138.511C574.781 132.829 567.327 131.72 563.687 122.539C560.046 113.358 548.016 108.299 548.016 108.299C548.016 108.299 575.232 86.6796 627.585 97.8705C627.585 97.8705 639.13 133.972 682.26 133.695C725.391 133.418 687.392 131.027 676.471 118.52C665.549 106.012 668.565 91.6341 662.671 87.9962C656.777 84.3583 675.673 61.1451 673.628 43.6485C671.582 26.152 682.954 28.4733 682.156 22.1676C681.359 15.8966 664.093 9.93734 649.947 34.9176C639.303 53.696 633.756 71.643 631.641 79.4039C631.225 80.8937 629.284 81.2402 628.382 79.9929C621.656 70.4997 599.571 43.9257 556.198 34.3979Z" fill="#F7F7F9" stroke="white" stroke-width="5" stroke-miterlimit="10" stroke-linecap="round"/>
<path d="M320.457 537.415C320.457 537.415 467.17 610.019 449.155 635.53C431.141 661.041 360.629 658.129 318.561 658.023C276.492 657.918 287.167 663.884 248.856 685.535C210.51 707.186 194.708 691.15 190.037 683.535C185.753 676.587 214.478 663.498 233.054 655.778C239.129 653.251 236.636 643.004 249.207 634.898C251.279 633.565 249.102 630.126 246.644 630.196C232.176 630.617 193.479 638.337 149.725 598.263C98.9126 551.767 108.604 537.836 79.8799 557.382C51.1553 576.892 45.3613 607.352 20.4644 599.983C20.4644 599.983 26.5043 540.643 68.3972 520.992C68.3972 520.992 41.0069 464.495 57.9326 430.913C74.8583 397.331 81.4601 397.26 83.4617 448.915C85.4633 500.569 116.611 523.589 158.644 517.132C200.572 510.675 278.283 524.115 320.457 537.415Z" fill="#F7F7F9" stroke="white" stroke-width="5" stroke-miterlimit="10" stroke-linecap="round"/>
<path d="M805.742 560.272C858.77 547.024 949.02 546.478 1024.37 562.128C1099.73 577.778 1065.71 609.624 1048.7 625.565C1031.69 641.506 922.324 697.919 876.653 701.704C831.018 705.489 702.454 682.851 669.748 653.444C637.079 624.036 626.553 683.688 603.317 707.964C583.868 728.309 552.547 727.399 552.547 727.399C552.547 727.399 562.927 681.905 596.142 654.645C622.365 633.099 600.039 605.657 574.945 587.022C549.815 568.388 565.221 521.438 565.221 521.438C565.221 521.438 580.882 526.57 602.516 551.646C624.113 576.759 650.081 630.988 688.942 611.808C727.839 592.664 774.785 568.024 805.742 560.272Z" fill="#F7F7F9" stroke="white" stroke-width="5" stroke-miterlimit="10" stroke-linecap="round"/>
<path d="M155.403 141.625C155.403 141.625 117.325 129.027 73.1872 154.223C73.1872 154.223 -3.92608 209.065 3.50447 268.768C10.935 328.438 33.8429 305.364 40.9995 298.381C48.1561 291.397 72.879 252.953 82.7749 245.455C92.6367 237.958 127.324 247.441 149.445 230.153C171.565 212.865 167.661 207.011 157.663 208.894C147.664 210.777 141.843 214.679 133.556 210.606C125.27 206.532 113.798 210.537 113.798 210.537C113.798 210.537 109.895 161.891 195.089 171.751C195.089 171.751 209.368 227.483 242.583 241.279C275.798 255.041 246.247 232.412 241.659 222.211C237.07 212.009 246.932 190.648 242.446 178.94C237.96 167.232 240.871 168.943 254.328 161.549C267.785 154.155 267.135 141.933 270.114 132.279C273.093 122.625 290.385 114.717 278.058 116.874C265.731 119.031 222.551 116.737 203.239 153.333C203.273 153.299 159.854 142.823 155.403 141.625Z" fill="#F7F7F9" stroke="white" stroke-width="5" stroke-miterlimit="10" stroke-linecap="round"/>
</svg>
