<svg width="34" height="30" viewBox="0 0 34 30" fill="none" xmlns="http://www.w3.org/2000/svg">
<g clip-path="url(#clip0)" filter="url(#filter0_d)">
<path fill-rule="evenodd" clip-rule="evenodd" d="M29.9986 2.60558C29.0403 3.04591 28.0121 3.34484 26.9335 3.47815C28.0354 2.79141 28.8812 1.7007 29.2769 0.403966C28.2449 1.04223 27.1042 1.50275 25.8898 1.75321C24.916 0.674624 23.5309 0 21.9945 0C19.0496 0 16.6597 2.48843 16.6597 5.55454C16.6597 5.99082 16.7062 6.41498 16.7993 6.81895C12.3647 6.58869 8.43437 4.37495 5.80383 1.01396C5.34601 1.83401 5.08218 2.78737 5.08218 3.80536C5.08218 5.73228 6.02499 7.43298 7.45665 8.42673C6.58368 8.39846 5.76116 8.148 5.0395 7.73191C5.0395 7.75615 5.0395 7.77635 5.0395 7.80059C5.0395 10.491 6.87855 12.7371 9.31898 13.2461C8.8728 13.3713 8.39945 13.44 7.91447 13.44C7.56917 13.44 7.2355 13.4036 6.90959 13.339C7.58857 15.5446 9.55953 17.1524 11.8913 17.1968C10.0639 18.6875 7.76704 19.5762 5.26453 19.5762C4.83387 19.5762 4.41097 19.5479 3.99194 19.4994C6.35089 21.0749 9.15603 21.996 12.1707 21.996C21.9828 21.996 27.3486 13.5329 27.3486 6.1928C27.3486 5.95042 27.3448 5.71208 27.3331 5.47374C28.3768 4.69005 29.2808 3.71245 29.9947 2.5975L29.9986 2.60558Z" fill="#2D2D34"/>
</g>
<defs>
<filter id="filter0_d" x="0" y="0" width="34" height="30" filterUnits="userSpaceOnUse" color-interpolation-filters="sRGB">
<feFlood flood-opacity="0" result="BackgroundImageFix"/>
<feColorMatrix in="SourceAlpha" type="matrix" values="0 0 0 0 0 0 0 0 0 0 0 0 0 0 0 0 0 0 127 0" result="hardAlpha"/>
<feOffset dy="4"/>
<feGaussianBlur stdDeviation="2"/>
<feComposite in2="hardAlpha" operator="out"/>
<feColorMatrix type="matrix" values="0 0 0 0 0 0 0 0 0 0 0 0 0 0 0 0 0 0 0.25 0"/>
<feBlend mode="normal" in2="BackgroundImageFix" result="effect1_dropShadow"/>
<feBlend mode="normal" in="SourceGraphic" in2="effect1_dropShadow" result="shape"/>
</filter>
<clipPath id="clip0">
<rect width="26" height="22" fill="white" transform="translate(4)"/>
</clipPath>
</defs>
</svg>
