<svg width="28" height="25" viewBox="0 0 28 25" fill="none" xmlns="http://www.w3.org/2000/svg">
<path d="M22.624 0.771864C16.898 -0.257288 11.046 -0.257288 5.32 0.771864C2.044 1.51346 0 3.79878 0 6.78029V17.3745C0 20.4014 2.044 22.6565 5.376 23.4283C8.232 23.9429 11.116 24.2153 14 24.2153C16.898 24.2153 19.796 23.958 22.652 23.4435C25.9 22.7775 28 20.4166 28 17.3896V6.79543C28 3.78365 25.9 1.42265 22.624 0.771864ZM18.564 12.7887L11.564 17.3291C11.452 17.4048 11.326 17.435 11.2 17.435C11.074 17.435 10.962 17.4048 10.85 17.3442C10.626 17.1929 10.486 16.9356 10.5 16.648V7.56729C10.5 7.29487 10.64 7.03758 10.85 6.90137C11.074 6.76516 11.34 6.76516 11.564 6.90137L18.564 11.4417C18.9 11.6688 18.998 12.1531 18.788 12.5012C18.732 12.592 18.662 12.6828 18.564 12.7433V12.7887Z" fill="#2D2D34"/>
</svg>
