<svg width="562" height="597" viewBox="0 0 562 597" fill="none" xmlns="http://www.w3.org/2000/svg">
<path d="M252.938 407.153L270.4 404.243L315.946 314.166L350.935 243.267L299.732 236.68L252.938 407.153Z" fill="white" stroke="#2D2D34" stroke-width="4.22082" stroke-miterlimit="10"/>
<path d="M159.254 263.672C159.254 263.672 201.433 330.613 210.24 346.746C221.415 367.221 252.939 407.155 252.939 407.155C252.939 407.155 278.081 361.609 288.479 342.965C295.695 330.037 322.796 271.395 322.796 271.395L159.254 263.672Z" fill="white" stroke="#2D2D34" stroke-width="4.22082" stroke-miterlimit="10"/>
<path d="M306.726 307.407C306.726 307.407 385.829 234.078 375.886 162.533C367.295 100.717 348.049 59.1836 292.367 29.3789" stroke="white" stroke-width="4.22082" stroke-miterlimit="10"/>
<path d="M233.417 95.0662C233.417 95.0662 198.213 99.8951 189.414 134.856C172.272 202.932 226.418 225.102 246.688 222.912" stroke="#2D2D34" stroke-width="4.22082" stroke-miterlimit="10"/>
<path d="M44.9663 258.433C54.6192 258.433 62.4444 250.612 62.4444 240.965C62.4444 231.317 54.6192 223.496 44.9663 223.496C35.3135 223.496 27.4883 231.317 27.4883 240.965C27.4883 250.612 35.3135 258.433 44.9663 258.433Z" stroke="#2D2D34" stroke-width="4.22082" stroke-miterlimit="10"/>
<path d="M12.5909 327.453C17.8879 327.453 22.1819 323.161 22.1819 317.867C22.1819 312.573 17.8879 308.281 12.5909 308.281C7.294 308.281 3 312.573 3 317.867C3 323.161 7.294 327.453 12.5909 327.453Z" stroke="#2D2D34" stroke-width="4.22082" stroke-miterlimit="10"/>
<path d="M49.0287 367.699C52.2051 367.699 54.7801 365.126 54.7801 361.951C54.7801 358.776 52.2051 356.203 49.0287 356.203C45.8523 356.203 43.2773 358.776 43.2773 361.951C43.2773 365.126 45.8523 367.699 49.0287 367.699Z" stroke="#2D2D34" stroke-width="4.22082" stroke-miterlimit="10"/>
<path d="M111.841 180.617C114.393 180.617 116.832 178.379 116.72 175.74C116.6 173.102 114.577 170.864 111.841 170.864C109.289 170.864 106.849 173.102 106.961 175.74C107.081 178.379 109.105 180.617 111.841 180.617Z" fill="white"/>
<path d="M154.294 94.3253C156.646 94.3253 156.654 90.6716 154.294 90.6716C151.942 90.6636 151.942 94.3253 154.294 94.3253Z" fill="white"/>
<path d="M263.723 47.6C266.859 47.6 266.867 42.7231 263.723 42.7231C260.587 42.7311 260.579 47.6 263.723 47.6Z" fill="white"/>
<path d="M298.014 215.729C301.15 215.729 301.158 210.852 298.014 210.852C294.879 210.852 294.871 215.729 298.014 215.729Z" fill="white"/>
<path d="M360.07 160.218C363.205 160.218 363.213 155.341 360.07 155.341C356.934 155.349 356.934 160.218 360.07 160.218Z" fill="white"/>
<path d="M219.631 271.205C222.767 271.205 222.775 266.328 219.631 266.328C216.488 266.328 216.488 271.205 219.631 271.205Z" fill="white"/>
<path d="M214.731 54.1347C217.866 54.1347 217.874 49.2578 214.731 49.2578C211.595 49.2578 211.587 54.1347 214.731 54.1347Z" fill="white"/>
<path d="M329.037 172.46C331.588 172.46 334.028 170.221 333.916 167.583C333.796 164.945 331.772 162.706 329.037 162.706C326.485 162.706 324.045 164.945 324.157 167.583C324.285 170.229 326.309 172.46 329.037 172.46Z" fill="white"/>
<path d="M284.951 287.532C288.087 287.532 288.095 282.655 284.951 282.655C281.816 282.655 281.808 287.532 284.951 287.532Z" fill="white"/>
<path d="M327.409 99.8261C330.545 99.8261 330.553 94.9492 327.409 94.9492C324.274 94.9572 324.266 99.8261 327.409 99.8261Z" fill="white"/>
<path d="M136.342 201.014C139.478 201.014 139.486 196.137 136.342 196.137C133.198 196.145 133.198 201.014 136.342 201.014Z" fill="white"/>
<path d="M135.249 347.135C135.249 347.135 150.855 380.865 174.444 382.321C198.034 383.776 190.778 373.254 188.595 369.984C186.419 366.723 173.356 354.387 171.173 350.037C168.997 345.688 175.164 332.992 170.085 323.199C165.005 313.405 162.462 314.492 162.462 318.482C162.462 322.471 163.549 325.014 161.374 327.916C159.198 330.818 159.926 335.535 159.926 335.535C159.926 335.535 147.951 331.186 141.416 312.686C141.416 312.686 150.487 302.164 142.144 288.749C133.801 275.326 140.328 287.662 138.512 293.466C136.696 299.27 131.617 301.085 131.617 303.619C131.617 306.162 120.73 304.707 115.651 308.696C110.571 312.685 109.116 308.696 107.308 310.143C105.492 311.59 106.948 318.122 117.467 317.762C127.993 317.402 136.337 314.5 136.337 314.5C136.337 314.5 128.713 328.275 135.249 347.135Z" fill="white" stroke="#2D2D34" stroke-width="4.22082" stroke-miterlimit="10"/>
<path d="M133.842 341.329C133.842 341.329 127.987 335.884 122.188 336.252C116.38 336.612 113.117 335.165 118.196 340.242C123.275 345.318 122.915 346.773 127.995 349.308C133.074 351.85 140.697 356.559 140.697 356.559" fill="white"/>
<path d="M133.842 341.329C133.842 341.329 127.987 335.884 122.188 336.252C116.38 336.612 113.117 335.165 118.196 340.242C123.275 345.318 122.915 346.773 127.995 349.308C133.074 351.85 140.697 356.559 140.697 356.559" stroke="#2D2D34" stroke-width="4.22082" stroke-miterlimit="10"/>
<path d="M159.926 335.527C159.926 335.527 163.238 337.39 165.141 340.924L159.926 335.527Z" fill="white"/>
<path d="M159.926 335.527C159.926 335.527 163.238 337.39 165.141 340.924" stroke="#2D2D34" stroke-width="4.22082" stroke-miterlimit="10"/>
<path d="M184.358 481C184.358 481 156.769 481.967 143.555 494.631C143.555 494.631 133.828 498.86 141.931 501.723C150.034 504.585 149.554 500.771 154.137 503.457C158.721 506.144 161.833 504.265 161.833 504.265" fill="white"/>
<path d="M184.358 481C184.358 481 156.769 481.967 143.555 494.631C143.555 494.631 133.828 498.86 141.931 501.723C150.034 504.585 149.554 500.771 154.137 503.457C158.721 506.144 161.833 504.265 161.833 504.265" stroke="#2D2D34" stroke-width="4.22082" stroke-miterlimit="10"/>
<path d="M12.7695 485.166C12.7695 485.166 127.645 360.302 245.511 423.509C363.378 486.717 442.733 185.247 560.99 217.2" stroke="#2D2D34" stroke-width="4.22082" stroke-miterlimit="10"/>
<path d="M321.455 45.3568C265.493 8.88435 221.074 14.081 181.119 29.8628C132.732 48.9864 72.8429 110.499 92.2008 189.176C106.255 246.315 172.032 306.38 233.801 321.179C295.57 335.977 392.047 263.296 396.615 175.649C400.35 103.919 353.164 66.0154 321.455 45.3568ZM246.679 222.922C217.987 241.134 142.259 204.326 173.744 127.384C183.934 102.48 201.892 97.3472 215.203 95.5723C233.769 93.0939 262.054 96.9155 275.868 125.233C294.186 162.785 277.068 203.631 246.679 222.922Z" fill="#2D2D34" stroke="white" stroke-width="4.22082" stroke-miterlimit="10"/>
<path d="M362.611 465.964C373.138 468.507 381.849 477.573 381.849 477.573C387.296 481.922 402.535 503.324 412.334 507.681C422.132 512.031 433.747 497.16 439.914 490.996C443.658 487.255 448.474 488.054 451.681 489.261C453.017 489.765 453.081 491.58 451.817 492.243C445.858 495.369 443.906 502.077 439.547 509.856C434.467 518.922 419.949 516.02 419.949 516.02C425.396 526.173 418.045 533.88 412.326 542.859C406.606 551.837 409.782 553.38 407.43 551.021C402.775 546.368 408.246 535.511 409.062 533.065C409.878 530.619 416.413 515.924 403.343 515.924C390.272 515.924 361.699 501.238 361.699 501.238C360.883 506.954 355.98 514.293 355.98 520.825C355.98 527.357 358.428 530.619 355.164 530.619C351.9 530.619 345.365 522.456 345.365 514.293C345.365 506.13 340.47 495.521 340.47 495.521C334.75 490.628 322.504 486.543 309.441 474.303C302.666 467.955 299.746 460.976 298.506 455.723C297.346 450.806 300.162 445.777 305.01 444.33C310.969 442.556 319.928 441.492 329.583 446.009C346.637 453.988 348.093 458.705 363.331 463.054C378.569 467.403 389.464 462.695 397.807 473.208C397.807 473.208 392.36 476.837 386.92 476.11" fill="white"/>
<path d="M362.611 465.964C373.138 468.507 381.849 477.573 381.849 477.573C387.296 481.922 402.535 503.324 412.334 507.681C422.132 512.031 433.747 497.16 439.914 490.996C443.658 487.255 448.474 488.054 451.681 489.261C453.017 489.765 453.081 491.58 451.817 492.243C445.858 495.369 443.906 502.077 439.547 509.856C434.467 518.922 419.949 516.02 419.949 516.02C425.396 526.173 418.045 533.88 412.326 542.859C406.606 551.837 409.782 553.38 407.43 551.021C402.775 546.368 408.246 535.511 409.062 533.065C409.878 530.619 416.413 515.924 403.343 515.924C390.272 515.924 361.699 501.238 361.699 501.238C360.883 506.954 355.98 514.293 355.98 520.825C355.98 527.357 358.428 530.619 355.164 530.619C351.9 530.619 345.365 522.456 345.365 514.293C345.365 506.13 340.47 495.521 340.47 495.521C334.75 490.628 322.504 486.543 309.441 474.303C302.666 467.955 299.746 460.976 298.506 455.723C297.346 450.806 300.162 445.777 305.01 444.33C310.969 442.556 319.928 441.492 329.583 446.009C346.637 453.988 348.093 458.705 363.331 463.054C378.569 467.403 389.464 462.695 397.807 473.208C397.807 473.208 392.36 476.837 386.92 476.11" stroke="#2D2D34" stroke-width="4.22082" stroke-miterlimit="10"/>
<path d="M184.358 480.995C184.358 480.995 239.024 447.169 243.799 458.465C248.575 469.762 232.976 492.659 224.209 506.666C215.442 520.673 219.658 518.346 218.922 535.607C218.186 552.876 209.563 554.819 206.051 554.803C202.844 554.787 204.436 542.499 205.707 534.704C206.123 532.153 202.196 530.858 202.092 524.99C202.076 524.023 200.476 524.031 199.988 524.87C197.132 529.779 188.501 541.923 169.224 550.558C144.522 561.622 140.531 551.725 141.083 565.348C141.635 578.971 150.602 587.222 142.971 594.001C142.971 594.001 124.421 579.675 126.556 561.63C126.556 561.63 102.015 559.04 94.32 546.424C86.6168 533.808 87.9687 531.602 105.623 541.651C123.277 551.709 137.419 546.104 143.978 530.754C150.554 515.404 171.167 492.307 184.358 480.995Z" fill="white" stroke="#2D2D34" stroke-width="4.22082" stroke-miterlimit="10"/>
<path d="M199.996 524.873C199.996 524.873 205.164 517.494 212.147 512.417C219.122 507.348 222.85 500.809 222.85 500.809" fill="white"/>
<path d="M199.996 524.873C199.996 524.873 205.164 517.494 212.147 512.417C219.122 507.348 222.85 500.809 222.85 500.809" stroke="#2D2D34" stroke-width="4.22082" stroke-miterlimit="10"/>
<path d="M496.42 3.7097C498.805 3.7097 498.811 0 496.42 0C494.035 0 494.029 3.7097 496.42 3.7097Z" fill="white"/>
</svg>
