<svg width="198" height="29" viewBox="0 0 198 29" fill="none" xmlns="http://www.w3.org/2000/svg">
<path d="M188.586 10.2727V11.8698H186.903V15.0025H188.586V16.5995H185.306V11.8698H184.323V10.2727H185.306V8L186.903 8V10.2727H188.586Z" fill="#2D2D34"/>
<path fill-rule="evenodd" clip-rule="evenodd" d="M195.201 15.0025V10.2727H190.41V11.8698H193.604V13.0369C193.297 12.7052 192.818 12.4226 191.897 12.4226C190.398 12.4226 189.698 13.3808 189.698 14.5111C189.698 15.6413 190.398 16.5995 191.897 16.5995C192.818 16.5995 193.297 16.3047 193.604 15.9853V16.5995H196V15.0025H195.201ZM191.295 14.5111C191.295 15.0025 191.614 15.1499 192.45 15.1499C193.285 15.1499 193.604 15.0025 193.604 14.5111C193.604 14.0197 193.285 13.8722 192.45 13.8722C191.614 13.8722 191.295 14.0197 191.295 14.5111Z" fill="#2D2D34"/>
<path fill-rule="evenodd" clip-rule="evenodd" d="M183.589 13.3071C183.589 11.5872 182.827 10.2727 180.837 10.2727C178.798 10.2727 178.036 11.6855 178.036 13.4423C178.036 14.5971 178.442 16.5995 181.279 16.5995C181.746 16.5995 182.213 16.5995 183.171 16.3784V14.8059C182.324 15.0025 181.771 15.0025 181.402 15.0025C180.248 15.0025 179.842 14.6585 179.707 14.0442H183.589V13.3071ZM181.98 12.8157C181.931 12.1155 181.574 11.8698 180.813 11.8698C180.076 11.8698 179.719 12.1523 179.646 12.8157H181.98Z" fill="#2D2D34"/>
<path fill-rule="evenodd" clip-rule="evenodd" d="M174.366 10.2727C173.629 10.2727 173.015 10.543 172.597 10.973V8H171V16.5995H172.597V15.887C173.015 16.3292 173.629 16.5995 174.366 16.5995C176.295 16.5995 177.118 15.2359 177.118 13.43C177.118 11.6241 176.295 10.2727 174.366 10.2727ZM172.597 13.43C172.597 14.6953 173.039 15.0025 174.059 15.0025C175.079 15.0025 175.521 14.6953 175.521 13.43C175.521 12.1769 175.079 11.8698 174.059 11.8698C173.039 11.8698 172.597 12.1769 172.597 13.43Z" fill="#2D2D34"/>
<g clip-path="url(#clip0)">
<path d="M28.5039 10.6101L23.7974 29.0007H18.0121L14.4665 14.4775H14.0311L10.517 29.0007H4.73172L0 10.6101H3.65289L7.35625 25.1333H7.79157L11.3309 10.6101H17.173L20.7186 25.1333H21.1539L24.8573 10.6101H28.5039Z" fill="#2D2D34"/>
<path d="M48.6993 10.6101V29.0007H45.1852V21.8338H37.0971V29.0007H33.583V10.6101H37.0971V18.3197H45.1852V10.6101H48.6993Z" fill="#2D2D34"/>
<path d="M65.0532 25.4866H57.9934L56.9398 29.0007H53.1797L58.8073 10.6101H64.2456L69.8417 29.0007H66.1068L65.0532 25.4866ZM63.9996 21.9662L61.7283 14.4775H61.293L59.047 21.9662H63.9996Z" fill="#2D2D34"/>
<path d="M84.6715 25.4866V29.0007H74.1797V10.6101H77.6938V25.4866H84.6715Z" fill="#2D2D34"/>
<path d="M92.0348 14.1242V17.9096H99.0125V21.4237H92.0348V25.4803H100.905V28.9944H88.792V10.6101H100.905V14.1242H92.0348Z" fill="#2D2D34"/>
<path d="M126.779 10.6101V29.0007H123.265V19.02H122.83L118.394 27.6191H114.502L110.067 19.02H109.631V29.0007H106.117V10.6101H109.631L116.23 23.4047H116.666L123.259 10.6101H126.779Z" fill="#2D2D34"/>
<path d="M142.495 25.4866H135.435L134.382 29.0007H130.622L136.249 10.6101H141.688L147.284 29.0007H143.549L142.495 25.4866ZM141.441 21.9662L139.17 14.4775H138.735L136.495 21.9662H141.441Z" fill="#2D2D34"/>
<path d="M165.611 17.0452C165.611 20.9126 163.882 23.5119 158.04 23.5119H154.822V29.0007H151.308V10.6101H158.04C163.882 10.6101 165.611 13.1779 165.611 17.0452ZM162.096 17.0452C162.096 14.7993 161.396 14.1242 158.664 14.1242H154.822V19.9915H158.664C161.39 19.9978 162.096 19.2092 162.096 17.0452Z" fill="#2D2D34"/>
</g>
<defs>
<clipPath id="clip0">
<rect width="165.61" height="18.3906" fill="white" transform="translate(0 10.6094)"/>
</clipPath>
</defs>
</svg>
