<svg width="511" height="395" viewBox="0 0 511 395" fill="none" xmlns="http://www.w3.org/2000/svg">
<path d="M83.5148 161.588C83.5148 161.588 23.4191 180.497 11.3255 218.398C-17.6881 309.332 37.8846 343.676 44.9863 351.174C80.3294 388.578 162.806 363.881 190.247 328.158C201.348 313.7 226.211 274.366 218.599 243.619C214.007 225.109 211.029 184.687 147.734 159.962C134.427 154.78 95.9118 156.282 83.5148 161.588Z" stroke="#404049" stroke-width="5" stroke-miterlimit="10" stroke-linecap="round"/>
<path d="M354.981 177.687C354.981 177.687 317.776 184.771 310.702 198.939C303.614 213.107 284.129 244.971 282.364 252.055C280.599 259.139 269.967 299.851 271.732 310.477C273.497 321.103 294.761 361.815 305.393 370.677C316.025 379.525 363.531 393.1 381.568 391.929C401.894 390.606 447.607 373.006 459.507 361.829C476.8 345.594 487.845 292.781 487.845 275.085C487.845 257.375 489.61 234.359 471.904 216.663C454.184 198.953 425.846 179.479 406.362 177.714C386.863 175.909 354.981 177.687 354.981 177.687Z" stroke="#404049" stroke-width="5" stroke-miterlimit="10" stroke-linecap="round"/>
<path d="M171.188 203.744C171.188 203.744 140.161 171.439 86.5883 182.768C36.104 193.449 14.1783 234.464 12.8407 250.3C5.20123 340.462 73.5707 356.16 87.0157 358.586C100.461 361.011 216.584 345.575 193.817 241.107C190.287 224.858 171.188 203.744 171.188 203.744Z" fill="#404049"/>
<path d="M442.213 222.339C442.213 222.339 424.59 189.868 358.841 197.435C352.828 198.124 326.173 205.401 311.431 224.516C274.213 272.767 294.084 320.495 302.413 333.381C346.085 400.927 419.378 368.222 431.899 360.642C444.42 353.062 458.141 343.428 466.194 324.037C488.34 270.7 442.213 222.339 442.213 222.339Z" fill="#404049"/>
<path d="M28.9207 192.253C28.9207 192.253 57.3689 158.197 78.6327 147.585C99.8964 136.973 144.175 110.401 144.175 110.401L245.144 50.2011L297.724 20.8315C302.523 18.1578 307.694 16.2145 313.072 15.112C319.719 13.7476 328.723 11.6113 331.936 9.47512C337.245 5.93313 342.568 0.627041 351.421 4.16903C360.274 7.71102 372.685 20.1011 379.759 27.1851C386.847 34.269 393.935 41.353 388.612 48.437C383.303 55.521 374.436 66.1469 374.436 66.1469L329.261 111.297L314.313 125.492C314.313 125.492 358.482 123.687 365.57 124.569C372.657 125.451 391.26 128.111 395.686 128.993C400.113 129.875 406.318 131.653 406.318 131.653C406.318 131.653 442.627 112.179 446.171 109.519C449.715 106.859 461.229 99.7752 466.538 96.247C471.847 92.7188 498.42 75.8909 502.846 73.2309C507.273 70.571 523.214 59.9588 527.64 59.9588C532.067 59.9588 543.581 52.8748 543.581 52.8748C543.581 52.8748 561.301 38.7069 563.949 38.7069C566.596 38.7069 588.743 43.1309 593.183 46.6729C597.609 50.2149 609.124 55.521 610.903 58.1809C612.682 60.8409 615.329 62.605 614.447 67.029C613.564 71.453 609.138 80.3011 609.138 80.3011C609.138 80.3011 610.903 82.0652 610.903 90.045C610.903 98.0111 593.183 128.111 593.183 128.111L564.845 182.109L540.934 222.835C540.934 222.835 492.021 309.855 489.484 314.913C480.714 332.43 471.626 342.643 471.957 342.794" stroke="#404049" stroke-width="5" stroke-miterlimit="10" stroke-linecap="round"/>
<path d="M228.315 211.312C228.315 211.312 245.249 204.71 260.817 205.386C269.988 205.785 285.005 213.076 286.77 215.736" stroke="#404049" stroke-width="5" stroke-miterlimit="10" stroke-linecap="round"/>
<path d="M207.028 302.569C207.028 302.569 221.508 289.407 236.511 291.419C240.896 292.012 250.466 293.652 257.54 297.194C264.628 300.736 271.716 310.466 271.716 310.466" stroke="#404049" stroke-width="5" stroke-miterlimit="10" stroke-linecap="round"/>
<path d="M333.276 76.9775C333.276 76.9775 300.65 95.9554 286.184 104.776C275.649 111.198 268.575 116.821 261.087 122.789C246.07 134.766 260.811 129.556 278.214 125.477C290.693 122.555 313.35 125.435 313.35 125.435" stroke="#404049" stroke-width="5" stroke-miterlimit="10" stroke-linecap="round"/>
<path d="M268.39 117.786C283.931 114.203 293.887 112.204 306.381 114.341C311.649 115.237 320.722 119.385 320.722 119.385" stroke="#404049" stroke-width="5" stroke-miterlimit="10" stroke-linecap="round"/>
<path d="M291.11 102.257C297.481 100.823 320.468 102.918 329.294 111.284" stroke="#404049" stroke-width="5" stroke-miterlimit="10" stroke-linecap="round"/>
<path d="M310.238 90.3123C315.547 91.1943 332.412 94.1574 337.197 102.661" stroke="#404049" stroke-width="5" stroke-miterlimit="10" stroke-linecap="round"/>
<path d="M378.004 153.331C378.004 153.331 384.472 146.715 390.319 142.209C392.842 140.252 406.784 131.583 406.784 131.583" stroke="#404049" stroke-width="5" stroke-miterlimit="10" stroke-linecap="round"/>
<path d="M323.535 13.0315C323.535 13.0315 337.711 22.7754 343.02 28.5225C348.329 34.2696 351.873 38.2664 356.3 43.5725C360.726 48.8786 367.373 54.6395 369.579 59.5046C371.8 64.3697 374.447 66.1475 374.447 66.1475" stroke="#404049" stroke-width="5" stroke-miterlimit="10" stroke-linecap="round"/>
<path d="M335.934 21.8743C335.934 21.8743 343.959 17.2297 346.124 15.6723C350.868 12.2406 357.197 7.7063 357.197 7.7063" stroke="#404049" stroke-width="5" stroke-miterlimit="10" stroke-linecap="round"/>
<path d="M347.441 32.5114C348.765 32.5114 354.75 30.6784 357.632 27.7979C362.017 23.4152 368.691 16.5793 368.691 16.5793" stroke="#404049" stroke-width="5" stroke-miterlimit="10" stroke-linecap="round"/>
<path d="M356.3 43.5736C360.286 43.1326 365.87 38.5845 367.194 38.1435C368.518 37.7025 379.77 27.1868 379.77 27.1868" stroke="#404049" stroke-width="5" stroke-miterlimit="10" stroke-linecap="round"/>
<path d="M367.382 54.1879C367.382 54.1879 373.781 49.4607 375.573 48.0962C381.061 43.9478 384.206 38.2559 384.206 38.2559L386.867 34.7139" stroke="#404049" stroke-width="5" stroke-miterlimit="10" stroke-linecap="round"/>
<path d="M495.361 198.476C495.361 198.476 519.713 176.783 526.36 170.595C533.007 164.393 556.035 139.613 556.035 139.613L572.418 120.58" stroke="#404049" stroke-width="5" stroke-miterlimit="10" stroke-linecap="round"/>
<path d="M502.009 194.061C502.009 194.061 526.803 233.45 525.921 249.823" stroke="#404049" stroke-width="5" stroke-miterlimit="10" stroke-linecap="round"/>
<path d="M512.185 183.871C524.113 193.642 537.875 219.277 536.979 229.462" stroke="#404049" stroke-width="5" stroke-miterlimit="10" stroke-linecap="round"/>
<path d="M84.7651 309.192L101.078 229.559" stroke="#26262C" stroke-width="5" stroke-miterlimit="10"/>
<path d="M80.1097 218.074C80.1097 218.074 147.969 236.831 137.82 249.621C130.815 258.455 112.736 261.487 102.215 262.507C100.132 262.714 99.5947 265.498 101.47 266.449C114.874 273.257 141.309 288.872 129.132 300.932C113.109 316.795 65.3271 300.629 65.3271 300.629" stroke="#26262C" stroke-width="5" stroke-miterlimit="10"/>
<path d="M101.085 229.559L107.36 203.965" stroke="#26262C" stroke-width="5" stroke-miterlimit="10"/>
<path d="M84.7743 309.196L80.0444 324.563" stroke="#26262C" stroke-width="5" stroke-miterlimit="10"/>
<path d="M115.364 229.756L121.872 207.801" stroke="#26262C" stroke-width="5" stroke-miterlimit="10"/>
<path d="M97.2441 307.412L93.9622 326.114" stroke="#26262C" stroke-width="5" stroke-miterlimit="10"/>
<path d="M362.316 330.597L378.643 250.95" stroke="#26262C" stroke-width="5" stroke-miterlimit="10"/>
<path d="M357.655 239.488C357.655 239.488 425.514 258.245 415.365 271.035C408.36 279.869 390.282 282.901 379.76 283.921C377.678 284.128 377.14 286.912 379.015 287.863C392.419 294.671 418.854 310.286 406.678 322.345C390.654 338.208 342.873 322.042 342.873 322.042" stroke="#26262C" stroke-width="5" stroke-miterlimit="10"/>
<path d="M378.636 250.955L384.897 225.376" stroke="#26262C" stroke-width="5" stroke-miterlimit="10"/>
<path d="M362.318 330.607L357.589 345.974" stroke="#26262C" stroke-width="5" stroke-miterlimit="10"/>
<path d="M392.916 251.166L399.425 229.197" stroke="#26262C" stroke-width="5" stroke-miterlimit="10"/>
<path d="M374.809 328.822L371.514 347.511" stroke="#26262C" stroke-width="5" stroke-miterlimit="10"/>
</svg>
