<svg width="75" height="74" viewBox="0 0 75 74" fill="none" xmlns="http://www.w3.org/2000/svg">
<rect x="8" y="9" width="64" height="64" rx="12.8" fill="#29293E"/>
<path d="M8.00001 49.8C17.1215 44.0125 33.7196 57 43.7383 57C54.9714 57 62.8 51.8 72 47.8L72 21.8C72 14.7308 66.2693 9 59.2 9L20.8 9C13.7308 9 8.00001 14.7307 8.00001 21.8L8.00001 49.8Z" fill="#484873"/>
<path d="M8.00001 25.8C17.1215 20.0125 33.7196 33 43.7383 33C54.9714 33 62.8 27.8 72 23.8L72 21.8C72 14.7308 66.2692 9 59.2 9L20.8 9C13.7308 9 8.00001 14.7308 8.00001 21.8L8.00001 25.8Z" fill="#5E5EA9"/>
<path d="M20.8 53.2736L27.7903 35.4107C29.4466 31.178 35.5117 31.4043 36.848 35.7486L41.7338 51.6315C43.0501 55.9105 48.99 56.2171 50.7398 52.0964L59.2 32.1731" stroke="white" stroke-width="4" stroke-linecap="round" stroke-linejoin="round"/>
</svg>
