<svg width="64" height="64" viewBox="0 0 64 64" fill="none" xmlns="http://www.w3.org/2000/svg">
<rect width="64" height="64" rx="12.8" fill="#29293E"/>
<path d="M8.25884e-06 40.8C9.12151 35.0125 25.7196 48 35.7383 48C46.9714 48 54.8 42.8 64 38.8L64 12.8C64 5.73076 58.2693 3.3137e-06 51.2 2.69569e-06L12.8 -6.61348e-07C5.73077 -1.27936e-06 1.13247e-05 5.73075 1.07067e-05 12.8L8.25884e-06 40.8Z" fill="#484873"/>
<path d="M8.25884e-06 16.8C9.12151 11.0125 25.7196 24 35.7383 24C46.9714 24 54.8 18.8 64 14.8L64 12.8C64 5.73076 58.2692 1.40635e-06 51.2 7.88337e-07L12.8 -2.5687e-06C5.73076 -3.18671e-06 9.22654e-06 5.73075 8.60853e-06 12.8L8.25884e-06 16.8Z" fill="#5E5EA9"/>
<path d="M12.8 44.2736L19.7903 26.4107C21.4466 22.178 27.5117 22.4043 28.848 26.7486L33.7338 42.6315C35.0501 46.9105 40.99 47.2171 42.7398 43.0964L51.2 23.1731" stroke="white" stroke-width="4" stroke-linecap="round" stroke-linejoin="round"/>
</svg>
