<svg width="64" height="64" viewBox="0 0 64 64" fill="none" xmlns="http://www.w3.org/2000/svg">
<rect width="64" height="64" rx="12.8" fill="url(#paint0_linear)"/>
<mask id="mask0" style="mask-type:alpha" maskUnits="userSpaceOnUse" x="0" y="0" width="64" height="64">
<rect width="64" height="64" rx="8" fill="#7A8F9C"/>
</mask>
<g mask="url(#mask0)">
<rect x="32" y="39.2017" width="73.6" height="73.6" rx="36.8" fill="#B6F6BC" fill-opacity="0.24"/>
<rect x="-24" y="-25.5984" width="54.4" height="54.4" rx="27.2" fill="#B6F6BC" fill-opacity="0.24"/>
</g>
<path d="M26.3999 12C29.0263 12 31.6271 12.5173 34.0536 13.5224C36.4801 14.5275 38.6849 16.0007 40.542 17.8579C42.3992 19.715 43.8724 21.9198 44.8775 24.3463C45.8826 26.7728 46.3999 29.3736 46.3999 32C46.3999 34.6264 45.8826 37.2272 44.8775 39.6537C43.8724 42.0802 42.3992 44.285 40.542 46.1421C38.6849 47.9993 36.4801 49.4725 34.0536 50.4776C31.6271 51.4827 29.0263 52 26.3999 52" stroke="white" stroke-width="4" stroke-linecap="round" stroke-linejoin="round"/>
<circle r="2.4" transform="matrix(-2.10831e-08 -1 -1 2.10831e-08 26.4 31.9999)" fill="white" stroke="white" stroke-width="4"/>
<defs>
<linearGradient id="paint0_linear" x1="32" y1="0" x2="32" y2="64" gradientUnits="userSpaceOnUse">
<stop offset="0.049452" stop-color="#0CB8C3"/>
<stop offset="1" stop-color="#098C8C"/>
</linearGradient>
</defs>
</svg>
